<svg width="25" height="33" viewBox="0 0 25 33" fill="none" xmlns="http://www.w3.org/2000/svg">
<g clip-path="url(#clip0_4689_15865)">
<mask id="mask0_4689_15865" style="mask-type:alpha" maskUnits="userSpaceOnUse" x="0" y="0" width="24" height="32">
<path d="M15.2139 0.776204L3.20679 0.512585C2.04139 0.486999 1.06696 1.41957 1.04137 2.58496L0.452105 29.4243C0.426518 30.5897 1.35909 31.5641 2.52448 31.5897L20.8882 31.9929C22.0536 32.0185 23.028 31.0859 23.0536 29.9205L23.5033 9.43786L15.2139 0.776204Z" fill="white"/>
</mask>
<g mask="url(#mask0_4689_15865)">
<path d="M15.2139 0.776204L3.20679 0.512585C2.04139 0.486999 1.06696 1.41957 1.04137 2.58496L0.452105 29.4243C0.426518 30.5897 1.35909 31.5641 2.52448 31.5897L20.8882 31.9929C22.0536 32.0185 23.028 31.0859 23.0536 29.9205L23.5033 9.43786L18.6368 5.79781L15.2139 0.776204Z" fill="#0F9D58"/>
</g>
<mask id="mask1_4689_15865" style="mask-type:alpha" maskUnits="userSpaceOnUse" x="0" y="0" width="24" height="32">
<path d="M15.2139 0.776204L3.20679 0.512585C2.04139 0.486999 1.06696 1.41957 1.04137 2.58496L0.452105 29.4243C0.426518 30.5897 1.35909 31.5641 2.52448 31.5897L20.8882 31.9929C22.0536 32.0185 23.028 31.0859 23.0536 29.9205L23.5033 9.43786L15.2139 0.776204Z" fill="white"/>
</mask>
<g mask="url(#mask1_4689_15865)">
<path d="M6.40234 15.7759L6.17749 26.0172L17.4783 26.2653L17.7031 16.024L6.40234 15.7759ZM11.1526 24.7131L7.62113 24.6356L7.65989 22.8699L11.1914 22.9474L11.1526 24.7131ZM11.2146 21.8879L7.68315 21.8104L7.72192 20.0447L11.2534 20.1222L11.2146 21.8879ZM11.2767 19.0628L7.74518 18.9852L7.78395 17.2195L11.3154 17.297L11.2767 19.0628ZM16.0967 24.8217L12.5652 24.7442L12.604 22.9784L16.1355 23.0559L16.0967 24.8217ZM16.1587 21.9965L12.6272 21.919L12.666 20.1532L16.1975 20.2307L16.1587 21.9965ZM16.2207 19.1713L12.6892 19.0938L12.728 17.328L16.2595 17.4056L16.2207 19.1713Z" fill="#F1F1F1"/>
</g>
<mask id="mask2_4689_15865" style="mask-type:alpha" maskUnits="userSpaceOnUse" x="0" y="0" width="24" height="32">
<path d="M15.2139 0.776204L3.20679 0.512585C2.04139 0.486999 1.06696 1.41957 1.04137 2.58496L0.452105 29.4243C0.426518 30.5897 1.35909 31.5641 2.52448 31.5897L20.8882 31.9929C22.0536 32.0185 23.028 31.0859 23.0536 29.9205L23.5033 9.43786L15.2139 0.776204Z" fill="white"/>
</mask>
<g mask="url(#mask2_4689_15865)">
<path d="M15.6621 8.64636L23.3455 16.6729L23.5043 9.43863L15.6621 8.64636Z" fill="url(#paint0_linear_4689_15865)"/>
</g>
<mask id="mask3_4689_15865" style="mask-type:alpha" maskUnits="userSpaceOnUse" x="0" y="0" width="24" height="32">
<path d="M15.2139 0.776204L3.20679 0.512585C2.04139 0.486999 1.06696 1.41957 1.04137 2.58496L0.452105 29.4243C0.426518 30.5897 1.35909 31.5641 2.52448 31.5897L20.8882 31.9929C22.0536 32.0185 23.028 31.0859 23.0536 29.9205L23.5033 9.43786L15.2139 0.776204Z" fill="white"/>
</mask>
<g mask="url(#mask3_4689_15865)">
<path d="M15.2129 0.775757L15.0733 7.13245C15.0476 8.30311 15.975 9.27214 17.1457 9.29785L23.5024 9.43741L15.2129 0.775757Z" fill="#87CEAC"/>
</g>
<mask id="mask4_4689_15865" style="mask-type:alpha" maskUnits="userSpaceOnUse" x="0" y="0" width="24" height="32">
<path d="M15.2139 0.776204L3.20679 0.512585C2.04139 0.486999 1.06696 1.41957 1.04137 2.58496L0.452105 29.4243C0.426518 30.5897 1.35909 31.5641 2.52448 31.5897L20.8882 31.9929C22.0536 32.0185 23.028 31.0859 23.0536 29.9205L23.5033 9.43786L15.2139 0.776204Z" fill="white"/>
</mask>
<g mask="url(#mask4_4689_15865)">
<path d="M3.20678 0.512585C2.04139 0.486999 1.06696 1.41957 1.04137 2.58496L1.03749 2.76153C1.06308 1.59614 2.03752 0.663574 3.20291 0.68916L15.21 0.952779L15.2139 0.776204L3.20678 0.512585Z" fill="white" fill-opacity="0.2"/>
</g>
<mask id="mask5_4689_15865" style="mask-type:alpha" maskUnits="userSpaceOnUse" x="0" y="0" width="24" height="32">
<path d="M15.2139 0.776204L3.20679 0.512585C2.04139 0.486999 1.06696 1.41957 1.04137 2.58496L0.452105 29.4243C0.426518 30.5897 1.35909 31.5641 2.52448 31.5897L20.8882 31.9929C22.0536 32.0185 23.028 31.0859 23.0536 29.9205L23.5033 9.43786L15.2139 0.776204Z" fill="white"/>
</mask>
<g mask="url(#mask5_4689_15865)">
<path d="M20.8912 31.8161L2.52745 31.413C1.36206 31.3874 0.429492 30.4129 0.455078 29.2476L0.451202 29.4241C0.425615 30.5895 1.35818 31.564 2.52357 31.5896L20.8873 31.9927C22.0527 32.0183 23.0271 31.0858 23.0527 29.9203L23.0566 29.7438C23.031 30.9092 22.0566 31.8417 20.8912 31.8161Z" fill="#263238" fill-opacity="0.2"/>
</g>
<mask id="mask6_4689_15865" style="mask-type:alpha" maskUnits="userSpaceOnUse" x="0" y="0" width="24" height="32">
<path d="M15.2139 0.776204L3.20679 0.512585C2.04139 0.486999 1.06696 1.41957 1.04137 2.58496L0.452105 29.4243C0.426518 30.5897 1.35909 31.5641 2.52448 31.5897L20.8882 31.9929C22.0536 32.0185 23.028 31.0859 23.0536 29.9205L23.5033 9.43786L15.2139 0.776204Z" fill="white"/>
</mask>
<g mask="url(#mask6_4689_15865)">
<path d="M17.1466 9.29773C15.9759 9.27202 15.0485 8.30299 15.0742 7.13232L15.0703 7.30889C15.0446 8.47958 15.972 9.44859 17.1427 9.47429L23.4994 9.61385L23.5033 9.43729L17.1466 9.29773Z" fill="#263238" fill-opacity="0.1"/>
</g>
<path d="M15.2139 0.776204L3.20679 0.512585C2.04139 0.486999 1.06696 1.41957 1.04137 2.58496L0.452105 29.4243C0.426518 30.5897 1.35909 31.5641 2.52448 31.5897L20.8882 31.9929C22.0536 32.0185 23.028 31.0859 23.0536 29.9205L23.5033 9.43786L15.2139 0.776204Z" fill="url(#paint1_radial_4689_15865)"/>
</g>
<defs>
<linearGradient id="paint0_linear_4689_15865" x1="19.5756" y1="9.40698" x2="19.418" y2="16.5877" gradientUnits="userSpaceOnUse">
<stop stop-color="#263238" stop-opacity="0.2"/>
<stop offset="1" stop-color="#263238" stop-opacity="0.02"/>
</linearGradient>
<radialGradient id="paint1_radial_4689_15865" cx="0" cy="0" r="1" gradientUnits="userSpaceOnUse" gradientTransform="translate(1.79036 1.09951) rotate(1.25774) scale(36.4535 36.4534)">
<stop stop-color="white" stop-opacity="0.1"/>
<stop offset="1" stop-color="white" stop-opacity="0"/>
</radialGradient>
<clipPath id="clip0_4689_15865">
<rect width="23.68" height="32" fill="white" transform="translate(0.703125) rotate(1.25774)"/>
</clipPath>
</defs>
</svg>
