<svg width="32" height="32" viewBox="0 0 32 32" fill="none" xmlns="http://www.w3.org/2000/svg">
<g clip-path="url(#clip0_4689_15800)">
<path d="M27.2023 0.00192253L4.80226 0.00033927C2.1513 0.000151896 0.0021099 2.14903 0.00192253 4.8L0.00033927 27.2C0.000151896 29.851 2.14903 32.0002 4.8 32.0003L27.2 32.0019C29.851 32.0021 32.0002 29.8532 32.0003 27.2023L32.0019 4.80226C32.0021 2.1513 29.8532 0.0021099 27.2023 0.00192253Z" fill="white"/>
<path d="M7.27737 28.0124L7.27826 15.3713L-0.0211757 9.76233L-0.0222768 25.3412C-0.0224027 27.1217 0.867758 28.012 2.64821 28.0121" fill="#4285F4"/>
<path d="M6.92352 15.283L16.0033 22.1384L25.0841 15.2843L25.0847 6.56012L16.0039 13.4142L6.92414 6.55884" fill="#EA4335"/>
<path d="M24.7256 28.0137L24.7265 15.3726L32.0267 9.76468L32.0256 25.3436C32.0255 27.124 31.1352 28.0142 29.3547 28.0141" fill="#34A853"/>
<path d="M-0.0196415 9.94103L7.2798 15.55L7.28041 6.82576L4.60989 4.77806C2.20641 2.90842 -0.0192765 4.77773 -0.0194401 7.09231" fill="#C5221F"/>
<path d="M32.0263 9.94386L24.7261 15.5518L24.7267 6.82756L27.3975 4.78024C29.8012 2.91094 32.0267 4.78056 32.0265 7.09515" fill="#FBBC04"/>
</g>
<defs>
<clipPath id="clip0_4689_15800">
<rect width="32" height="32" fill="white" transform="translate(0.0022618)"/>
</clipPath>
</defs>
</svg>
