<svg width="177" height="32" viewBox="0 0 177 32" fill="none" xmlns="http://www.w3.org/2000/svg">
<path d="M7.38547 10.778C3.83725 13.2079 -0.0406329 18.0962 0.174585 23.8006C0.393248 25.5223 0.823748 26.5986 2.43471 27.8904C3.28303 28.5707 5.34059 29.6121 7.38547 29.2895L9.75322 28.7514C11.2677 28.5158 11.838 28.7123 12.6591 29.2895C13.7268 30.189 14.3527 30.6247 15.565 31.2268C18.148 32.5096 20.0954 31.8648 21.2691 29.9353C23.9597 25.7376 24.0674 15.4052 19.6547 10.8852C15.9955 7.44128 12.3487 7.38229 7.38547 10.778Z" fill="white"/>
<circle cx="12.132" cy="3.66692" r="3.50701" fill="white"/>
<path d="M36.8256 25.2557H34.9134V8.58961H28.6191V6.93335H43.1199V8.58961H36.8256V25.2557Z" fill="white"/>
<path d="M47.3584 25.2557H45.5524V13.1443H47.3584V25.2557ZM47.7302 8.48609C47.7302 8.8484 47.5974 9.15032 47.3318 9.39186C47.0662 9.61614 46.7741 9.72829 46.4554 9.72829C46.1367 9.72829 45.8446 9.61614 45.579 9.39186C45.3134 9.15032 45.1806 8.8484 45.1806 8.48609C45.1806 8.12379 45.3134 7.83049 45.579 7.6062C45.8446 7.36467 46.1367 7.2439 46.4554 7.2439C46.7741 7.2439 47.0662 7.36467 47.3318 7.6062C47.5974 7.83049 47.7302 8.12379 47.7302 8.48609Z" fill="white"/>
<path d="M53.7854 13.1443C53.8209 13.4721 53.8474 13.8344 53.8651 14.2312C53.8828 14.6281 53.8917 14.9559 53.8917 15.2146H53.9448C54.2989 14.5073 54.8743 13.9379 55.6711 13.5066C56.4678 13.0581 57.3088 12.8338 58.1941 12.8338C59.7699 12.8338 60.9473 13.291 61.7263 14.2054C62.5231 15.1198 62.9214 16.3274 62.9214 17.8284V25.2557H61.1155V18.553C61.1155 17.9147 61.0624 17.3367 60.9561 16.8191C60.8499 16.3016 60.664 15.8616 60.3984 15.4993C60.1505 15.1198 59.8053 14.8265 59.3627 14.6194C58.9377 14.4124 58.3977 14.3089 57.7426 14.3089C57.2646 14.3089 56.7954 14.4038 56.335 14.5935C55.8924 14.7833 55.494 15.0766 55.1399 15.4734C54.7858 15.853 54.5025 16.3447 54.2901 16.9485C54.0776 17.5351 53.9714 18.2339 53.9714 19.0447V25.2557H52.1654V15.8099C52.1654 15.4821 52.1566 15.0594 52.1388 14.5418C52.1211 14.0242 52.0946 13.5584 52.0592 13.1443H53.7854Z" fill="white"/>
<path d="M71.873 23.3665H71.9261L75.777 13.1443H77.7423L71.5543 28.3871C71.1825 29.3187 70.7044 30.0606 70.1201 30.6127C69.5536 31.182 68.7303 31.4667 67.6502 31.4667C67.1014 31.4667 66.5614 31.4149 66.0302 31.3114L66.2161 29.7069C66.641 29.8449 67.0837 29.9139 67.544 29.9139C68.1637 29.9139 68.6506 29.7242 69.0047 29.3446C69.3588 28.9823 69.6687 28.4561 69.9342 27.766L70.9435 25.2298L65.6318 13.1443H67.6502L71.873 23.3665Z" fill="white"/>
<path d="M80.6712 6.93335H82.5834V14.8782H92.8348V6.93335H94.747V25.2557H92.8348V16.5862H82.5834V25.2557H80.6712V6.93335Z" fill="white"/>
<path d="M108.657 25.2557C108.622 24.9279 108.595 24.5656 108.578 24.1688C108.56 23.772 108.551 23.4442 108.551 23.1854H108.498C108.144 23.8927 107.569 24.4707 106.772 24.9193C105.975 25.3506 105.134 25.5663 104.249 25.5663C102.673 25.5663 101.487 25.1091 100.69 24.1947C99.911 23.2803 99.5214 22.0726 99.5214 20.5716V13.1443H101.327V19.847C101.327 20.4853 101.381 21.0633 101.487 21.5809C101.593 22.0985 101.77 22.547 102.018 22.9266C102.283 23.2889 102.629 23.5736 103.054 23.7806C103.496 23.9876 104.045 24.0912 104.7 24.0912C105.178 24.0912 105.639 23.9963 106.081 23.8065C106.542 23.6167 106.949 23.332 107.303 22.9525C107.657 22.5557 107.94 22.064 108.153 21.4774C108.365 20.8735 108.472 20.1662 108.472 19.3553V13.1443H110.277V22.5902C110.277 22.918 110.286 23.3407 110.304 23.8582C110.322 24.3758 110.348 24.8416 110.384 25.2557H108.657Z" fill="white"/>
<path d="M116.839 15.2146C117.193 14.5073 117.733 13.9379 118.459 13.5066C119.202 13.0581 120.026 12.8338 120.929 12.8338C121.265 12.8338 121.61 12.8683 121.965 12.9373C122.336 13.0063 122.69 13.1443 123.027 13.3514C123.381 13.5411 123.7 13.7999 123.983 14.1277C124.284 14.4555 124.541 14.8782 124.753 15.3958C125.178 14.5677 125.753 13.9379 126.479 13.5066C127.223 13.0581 128.099 12.8338 129.109 12.8338C130.684 12.8338 131.862 13.291 132.641 14.2054C133.438 15.1198 133.836 16.3274 133.836 17.8284V25.2557H132.03V18.553C132.03 17.2763 131.782 16.2498 131.286 15.4734C130.808 14.6971 129.985 14.3089 128.817 14.3089C128.161 14.3089 127.604 14.4383 127.143 14.6971C126.701 14.9559 126.338 15.3009 126.054 15.7322C125.789 16.1463 125.594 16.6207 125.47 17.1556C125.346 17.6904 125.284 18.2425 125.284 18.8118V25.2557H123.478V18.1907C123.478 17.6041 123.434 17.0693 123.346 16.5862C123.257 16.1032 123.098 15.6977 122.867 15.3699C122.655 15.0249 122.354 14.7661 121.965 14.5935C121.575 14.4038 121.079 14.3089 120.477 14.3089C120.052 14.3089 119.619 14.4038 119.176 14.5935C118.751 14.7833 118.361 15.0766 118.007 15.4734C117.671 15.853 117.397 16.3447 117.184 16.9485C116.972 17.5351 116.865 18.2339 116.865 19.0447V25.2557H115.059V15.8099C115.059 15.4821 115.051 15.0594 115.033 14.5418C115.015 14.0242 114.989 13.5584 114.953 13.1443H116.679C116.715 13.4721 116.741 13.8344 116.759 14.2312C116.777 14.6281 116.786 14.9559 116.786 15.2146H116.839Z" fill="white"/>
<path d="M146.34 17.4402C146.34 16.3878 146.057 15.6028 145.49 15.0852C144.923 14.5677 144.1 14.3089 143.02 14.3089C142.276 14.3089 141.586 14.4383 140.949 14.6971C140.311 14.9559 139.771 15.3009 139.329 15.7322L138.319 14.5677C138.833 14.0673 139.506 13.6533 140.338 13.3255C141.188 12.9977 142.144 12.8338 143.206 12.8338C143.879 12.8338 144.507 12.9287 145.092 13.1184C145.676 13.291 146.189 13.5584 146.632 13.9207C147.075 14.283 147.42 14.7402 147.668 15.2923C147.916 15.8444 148.04 16.4913 148.04 17.2332V22.5384C148.04 23.0042 148.057 23.4873 148.093 23.9876C148.128 24.488 148.181 24.9107 148.252 25.2557H146.632C146.579 24.9624 146.535 24.6432 146.499 24.2982C146.464 23.9531 146.446 23.6167 146.446 23.2889H146.393C145.826 24.0998 145.18 24.6864 144.454 25.0487C143.746 25.3937 142.887 25.5663 141.878 25.5663C141.4 25.5663 140.904 25.4973 140.391 25.3592C139.895 25.2385 139.435 25.0314 139.01 24.7381C138.603 24.4448 138.257 24.0653 137.974 23.5995C137.708 23.1336 137.576 22.5643 137.576 21.8914C137.576 20.9598 137.815 20.2266 138.293 19.6917C138.789 19.1396 139.444 18.7342 140.258 18.4754C141.073 18.1994 142.002 18.0268 143.047 17.9578C144.109 17.8716 145.207 17.8284 146.34 17.8284V17.4402ZM145.809 19.2C145.065 19.2 144.313 19.2345 143.551 19.3035C142.808 19.3553 142.126 19.4761 141.506 19.6658C140.904 19.8384 140.409 20.0972 140.019 20.4422C139.63 20.7873 139.435 21.2445 139.435 21.8138C139.435 22.2451 139.514 22.6074 139.674 22.9007C139.851 23.194 140.081 23.4356 140.364 23.6253C140.648 23.7979 140.957 23.9273 141.294 24.0135C141.648 24.0825 142.002 24.117 142.356 24.117C142.994 24.117 143.56 24.0135 144.056 23.8065C144.552 23.5822 144.968 23.2889 145.304 22.9266C145.641 22.547 145.897 22.1157 146.074 21.6326C146.251 21.1496 146.34 20.6406 146.34 20.1058V19.2H145.809Z" fill="white"/>
<path d="M154.312 13.1443C154.348 13.4721 154.374 13.8344 154.392 14.2312C154.409 14.6281 154.418 14.9559 154.418 15.2146H154.471C154.826 14.5073 155.401 13.9379 156.198 13.5066C156.994 13.0581 157.835 12.8338 158.721 12.8338C160.297 12.8338 161.474 13.291 162.253 14.2054C163.05 15.1198 163.448 16.3274 163.448 17.8284V25.2557H161.642V18.553C161.642 17.9147 161.589 17.3367 161.483 16.8191C161.377 16.3016 161.191 15.8616 160.925 15.4993C160.677 15.1198 160.332 14.8265 159.889 14.6194C159.464 14.4124 158.924 14.3089 158.269 14.3089C157.791 14.3089 157.322 14.4038 156.862 14.5935C156.419 14.7833 156.021 15.0766 155.667 15.4734C155.312 15.853 155.029 16.3447 154.817 16.9485C154.604 17.5351 154.498 18.2339 154.498 19.0447V25.2557H152.692V15.8099C152.692 15.4821 152.683 15.0594 152.665 14.5418C152.648 14.0242 152.621 13.5584 152.586 13.1443H154.312Z" fill="white"/>
<path d="M174.737 16.0169C174.471 15.5166 174.064 15.1111 173.515 14.8006C172.984 14.4728 172.373 14.3089 171.683 14.3089C171.364 14.3089 171.045 14.3434 170.726 14.4124C170.408 14.4814 170.124 14.5935 169.877 14.7488C169.629 14.9041 169.425 15.1025 169.266 15.344C169.124 15.5856 169.053 15.8702 169.053 16.198C169.053 16.7674 169.292 17.2073 169.77 17.5179C170.248 17.8112 171.001 18.0613 172.028 18.2684C173.497 18.5617 174.577 18.993 175.268 19.5623C175.976 20.1144 176.33 20.8649 176.33 21.8138C176.33 22.5039 176.189 23.0905 175.905 23.5736C175.64 24.0394 175.286 24.4276 174.843 24.7381C174.4 25.0314 173.896 25.2385 173.329 25.3592C172.78 25.4973 172.223 25.5663 171.656 25.5663C170.718 25.5663 169.806 25.3765 168.921 24.9969C168.035 24.6174 167.309 24.0221 166.743 23.2113L168.177 22.1761C168.496 22.7109 168.965 23.1595 169.584 23.5218C170.204 23.8841 170.886 24.0653 171.629 24.0653C172.019 24.0653 172.391 24.0308 172.745 23.9618C173.099 23.8927 173.409 23.772 173.674 23.5995C173.94 23.4269 174.152 23.2113 174.312 22.9525C174.471 22.6764 174.551 22.34 174.551 21.9432C174.551 21.3048 174.232 20.8304 173.595 20.5198C172.975 20.192 172.072 19.8901 170.886 19.6141C170.514 19.5278 170.116 19.4243 169.691 19.3035C169.283 19.1655 168.903 18.9757 168.549 18.7342C168.195 18.4754 167.902 18.1562 167.672 17.7767C167.442 17.3971 167.327 16.9227 167.327 16.3533C167.327 15.7322 167.451 15.206 167.699 14.7747C167.947 14.3261 168.274 13.9638 168.682 13.6878C169.106 13.3945 169.584 13.1788 170.116 13.0408C170.647 12.9028 171.196 12.8338 171.762 12.8338C172.63 12.8338 173.471 13.0236 174.285 13.4031C175.1 13.7827 175.711 14.3175 176.118 15.0076L174.737 16.0169Z" fill="white"/>
</svg>
