<svg width="32" height="32" viewBox="0 0 32 32" fill="none" xmlns="http://www.w3.org/2000/svg">
<path d="M3.58661 3.07557L19.3278 1.92323C21.2608 1.75842 21.7582 1.86882 22.9731 2.74617L27.9979 6.25692C28.827 6.86063 29.1032 7.02499 29.1032 7.68312V26.9383C29.1032 28.145 28.6612 28.8588 27.115 28.9679L8.83488 30.0654C7.67429 30.1204 7.12191 29.9559 6.51411 29.1874L2.81377 24.4148C2.15073 23.5364 1.875 22.8791 1.875 22.1102L1.875 4.99487C1.875 4.008 2.31733 3.18485 3.58661 3.07557Z" fill="white"/>
<path fill-rule="evenodd" clip-rule="evenodd" d="M3.43193 1.22262L19.1739 0.0702152C20.127 -0.0108056 20.9974 -0.0560418 21.8276 0.131009C22.7209 0.332286 23.3976 0.759819 24.0544 1.23345L29.0825 4.74653L29.0972 4.75728C29.1338 4.78382 29.1735 4.81235 29.2157 4.84269C29.5223 5.06299 29.9627 5.37943 30.2712 5.73454C30.8002 6.3435 30.9676 7.014 30.9676 7.68285V26.9381C30.9676 27.7145 30.8358 28.7475 30.0866 29.5929C29.3223 30.4557 28.2518 30.7502 27.2422 30.8216L27.2323 30.8222L8.93042 31.9209L8.91861 31.9214C8.27542 31.952 7.54068 31.9419 6.82088 31.6808C6.03666 31.3963 5.48243 30.8967 5.03897 30.3358L5.0334 30.3288L1.3202 25.5397L1.31293 25.5301C0.519821 24.4792 0 23.4347 0 22.1099L0 4.99459C0 4.25282 0.163219 3.34201 0.775802 2.56206C1.42623 1.73394 2.3769 1.31345 3.41995 1.22365L3.43193 1.22262ZM19.3224 1.92296L3.58126 3.07531C2.31197 3.18457 1.86965 4.00775 1.86965 4.99459L1.86965 22.1099C1.86965 22.8789 2.14537 23.5362 2.80841 24.4146L6.50873 29.1872C7.11655 29.9557 7.66891 30.12 8.82952 30.0649L27.1096 28.9677C28.6558 28.8585 29.0979 28.1448 29.0979 26.9381V7.68285C29.0979 7.05906 28.8498 6.87885 28.1177 6.34765C28.0775 6.31843 28.0358 6.28814 27.9926 6.25666L22.9677 2.7459C21.7528 1.86856 21.2554 1.75816 19.3224 1.92296Z" fill="white"/>
<path d="M19.3278 1.92322C21.2607 1.75842 21.7582 1.86885 22.973 2.74618L27.998 6.25696C28.827 6.86063 29.1035 7.02501 29.1035 7.68306V26.9383C29.1035 28.1451 28.6612 28.8588 27.115 28.9679L8.83483 30.0652C7.67431 30.1202 7.12198 29.9559 6.5142 29.1874L2.81383 24.4148C2.15082 23.5364 1.87502 22.8791 1.875 22.1103L1.875 4.99493C1.875 4.00809 2.31736 3.18484 3.58665 3.07556L19.3278 1.92322ZM27.2255 9.32884C27.2255 8.61634 26.9499 8.23199 26.3412 8.28681L8.39188 9.32884C7.72952 9.38418 7.50865 9.71355 7.50865 10.4265L7.50865 26.7735C7.50867 27.6521 7.95031 27.9807 8.94431 27.9263L26.1203 26.9383C27.1148 26.8841 27.2255 26.2798 27.2255 25.566V9.32884ZM24.4647 11.3034C24.5749 11.7976 24.4647 12.2912 23.9666 12.3468L23.139 12.5109V24.5791C22.4205 24.9631 21.7581 25.1826 21.206 25.1826C20.3219 25.1826 20.1005 24.9081 19.4383 24.0857L14.0251 15.6378V23.8112L15.7379 24.1956C15.7379 24.1956 15.738 25.1826 14.356 25.1826L10.546 25.4023C10.4353 25.1826 10.5461 24.6345 10.9326 24.5246L11.9267 24.2508V13.4437L10.5463 13.3337C10.4357 12.8395 10.7114 12.127 11.4851 12.0717L15.5723 11.7978L21.206 20.3557V12.7851L19.7694 12.6212C19.6591 12.0171 20.1005 11.5784 20.6528 11.524L24.4647 11.3034ZM22.4205 4.17276C21.9232 3.78895 21.2605 3.34937 19.9906 3.45932L4.85723 4.55666C4.3054 4.61108 4.19512 4.88537 4.4149 5.10526L6.57028 6.80572C7.45315 7.5187 7.78433 7.46441 9.44211 7.35447L25.0708 6.42149C25.4023 6.42149 25.1268 6.09292 25.0161 6.03822L22.4205 4.17276Z" fill="black"/>
</svg>
