<svg width="25" height="33" viewBox="0 0 25 33" fill="none" xmlns="http://www.w3.org/2000/svg">
<g clip-path="url(#clip0_4689_15822)">
<mask id="mask0_4689_15822" style="mask-type:luminance" maskUnits="userSpaceOnUse" x="0" y="0" width="24" height="33">
<path d="M23.8369 0.509097L0.704071 0L0 31.9923L23.1329 32.5013L23.8369 0.509097Z" fill="white"/>
</mask>
<g mask="url(#mask0_4689_15822)">
<mask id="mask1_4689_15822" style="mask-type:alpha" maskUnits="userSpaceOnUse" x="0" y="0" width="24" height="33">
<path d="M15.1621 0.318186L2.87278 0.0477279C1.67999 0.0214775 0.682469 0.98158 0.656066 2.18129L0.048005 29.811C0.0216023 31.0107 0.975917 32.0137 2.16871 32.04L20.9641 32.4536C22.1569 32.4799 23.1545 31.5198 23.1809 30.3201L23.6449 9.23425L15.1621 0.318186Z" fill="white"/>
</mask>
<g mask="url(#mask1_4689_15822)">
<path d="M15.1621 0.318186L2.87278 0.0477279C1.67999 0.0214775 0.682469 0.98158 0.656066 2.18129L0.048005 29.811C0.0216023 31.0107 0.975917 32.0137 2.16871 32.04L20.9641 32.4536C22.1569 32.4799 23.1545 31.5198 23.1809 30.3201L23.6449 9.23425L18.6646 5.48741L15.1621 0.318186Z" fill="#4285F4"/>
</g>
<mask id="mask2_4689_15822" style="mask-type:alpha" maskUnits="userSpaceOnUse" x="0" y="0" width="24" height="33">
<path d="M15.1621 0.318186L2.87278 0.0477279C1.67999 0.0214775 0.682469 0.98158 0.656066 2.18129L0.048005 29.811C0.0216023 31.0107 0.975917 32.0137 2.16871 32.04L20.9641 32.4536C22.1569 32.4799 23.1545 31.5198 23.1809 30.3201L23.6449 9.23425L15.1621 0.318186Z" fill="white"/>
</mask>
<g mask="url(#mask2_4689_15822)">
<path d="M15.6162 8.41943L23.4787 16.6817L23.6426 9.23441L15.6162 8.41943Z" fill="url(#paint0_linear_4689_15822)"/>
</g>
<mask id="mask3_4689_15822" style="mask-type:alpha" maskUnits="userSpaceOnUse" x="0" y="0" width="24" height="33">
<path d="M15.1621 0.318186L2.87278 0.0477279C1.67999 0.0214775 0.682469 0.98158 0.656066 2.18129L0.048005 29.811C0.0216023 31.0107 0.975917 32.0137 2.16871 32.04L20.9641 32.4536C22.1569 32.4799 23.1545 31.5198 23.1809 30.3201L23.6449 9.23425L15.1621 0.318186Z" fill="white"/>
</mask>
<g mask="url(#mask3_4689_15822)">
<path d="M5.97374 23.3948L17.5402 23.6493L17.5722 22.1951L6.00575 21.9405L5.97374 23.3948ZM5.90974 26.3031L14.5846 26.4941L14.6166 25.0398L5.94174 24.8489L5.90974 26.3031ZM6.13376 16.1238L6.10175 17.578L17.6682 17.8325L17.7002 16.3783L6.13376 16.1238ZM6.03775 20.4864L17.6042 20.7409L17.6362 19.2867L6.06975 19.0322L6.03775 20.4864Z" fill="#F1F1F1"/>
</g>
<mask id="mask4_4689_15822" style="mask-type:alpha" maskUnits="userSpaceOnUse" x="0" y="0" width="24" height="33">
<path d="M15.1621 0.318186L2.87278 0.0477279C1.67999 0.0214775 0.682469 0.98158 0.656066 2.18129L0.048005 29.811C0.0216023 31.0107 0.975917 32.0137 2.16871 32.04L20.9641 32.4536C22.1569 32.4799 23.1545 31.5198 23.1809 30.3201L23.6449 9.23425L15.1621 0.318186Z" fill="white"/>
</mask>
<g mask="url(#mask4_4689_15822)">
<path d="M15.1611 0.318359L15.0171 6.86222C14.9906 8.0674 15.9396 9.06487 17.1378 9.09124L23.6439 9.23442L15.1611 0.318359Z" fill="#A1C2FA"/>
</g>
<mask id="mask5_4689_15822" style="mask-type:alpha" maskUnits="userSpaceOnUse" x="0" y="0" width="24" height="33">
<path d="M15.1621 0.318186L2.87278 0.0477279C1.67999 0.0214775 0.682469 0.98158 0.656066 2.18129L0.048005 29.811C0.0216023 31.0107 0.975917 32.0137 2.16871 32.04L20.9641 32.4536C22.1569 32.4799 23.1545 31.5198 23.1809 30.3201L23.6449 9.23425L15.1621 0.318186Z" fill="white"/>
</mask>
<g mask="url(#mask5_4689_15822)">
<path d="M2.87278 0.0477279C1.67999 0.0214775 0.682469 0.98158 0.656066 2.18129L0.652066 2.36306C0.678468 1.16335 1.67599 0.203252 2.86878 0.229502L15.1581 0.49996L15.1621 0.318186L2.87278 0.0477279Z" fill="white" fill-opacity="0.2"/>
</g>
<mask id="mask6_4689_15822" style="mask-type:alpha" maskUnits="userSpaceOnUse" x="0" y="0" width="24" height="33">
<path d="M15.1621 0.318186L2.87278 0.0477279C1.67999 0.0214775 0.682469 0.98158 0.656066 2.18129L0.048005 29.811C0.0216023 31.0107 0.975917 32.0137 2.16871 32.04L20.9641 32.4536C22.1569 32.4799 23.1545 31.5198 23.1809 30.3201L23.6449 9.23425L15.1621 0.318186Z" fill="white"/>
</mask>
<g mask="url(#mask6_4689_15822)">
<path d="M20.9698 32.2723L2.17438 31.8587C0.981593 31.8324 0.0272776 30.8293 0.0536802 29.6296L0.0496797 29.8114C0.0232771 31.0111 0.977592 32.0142 2.17038 32.0404L20.9658 32.4541C22.1586 32.4803 23.1561 31.5202 23.1825 30.3205L23.1865 30.1387C23.1601 31.3384 22.1626 32.2986 20.9698 32.2723Z" fill="#1A237E" fill-opacity="0.2"/>
</g>
<mask id="mask7_4689_15822" style="mask-type:alpha" maskUnits="userSpaceOnUse" x="0" y="0" width="24" height="33">
<path d="M15.1621 0.318186L2.87278 0.0477279C1.67999 0.0214775 0.682469 0.98158 0.656066 2.18129L0.048005 29.811C0.0216023 31.0107 0.975917 32.0137 2.16871 32.04L20.9641 32.4536C22.1569 32.4799 23.1545 31.5198 23.1809 30.3201L23.6449 9.23425L15.1621 0.318186Z" fill="white"/>
</mask>
<g mask="url(#mask7_4689_15822)">
<path d="M17.1412 9.09084C15.943 9.06447 14.994 8.067 15.0205 6.86182L15.0165 7.0436C14.99 8.24878 15.939 9.24625 17.1372 9.27262L23.6433 9.4158L23.6473 9.23402L17.1412 9.09084Z" fill="#1A237E" fill-opacity="0.1"/>
</g>
<path d="M15.1621 0.318186L2.87278 0.0477279C1.67999 0.0214775 0.682469 0.98158 0.656066 2.18129L0.048005 29.811C0.0216023 31.0107 0.975917 32.0137 2.16871 32.04L20.9641 32.4536C22.1569 32.4799 23.1545 31.5198 23.1809 30.3201L23.6449 9.23425L15.1621 0.318186Z" fill="url(#paint1_radial_4689_15822)"/>
</g>
</g>
<defs>
<linearGradient id="paint0_linear_4689_15822" x1="19.6216" y1="9.20215" x2="19.4589" y2="16.5944" gradientUnits="userSpaceOnUse">
<stop stop-color="#1A237E" stop-opacity="0.2"/>
<stop offset="1" stop-color="#1A237E" stop-opacity="0.02"/>
</linearGradient>
<radialGradient id="paint1_radial_4689_15822" cx="0" cy="0" r="1" gradientUnits="userSpaceOnUse" gradientTransform="translate(1.42301 0.648456) rotate(1.26074) scale(37.3104)">
<stop stop-color="white" stop-opacity="0.1"/>
<stop offset="1" stop-color="white" stop-opacity="0"/>
</radialGradient>
<clipPath id="clip0_4689_15822">
<rect width="23.36" height="32" fill="white" transform="translate(0.704071) rotate(1.26074)"/>
</clipPath>
</defs>
</svg>
