<svg width="32" height="32" viewBox="0 0 32 32" fill="none" xmlns="http://www.w3.org/2000/svg">
<g clip-path="url(#clip0_4689_15815)">
<path d="M6.81234 20.1807C6.81225 22.0132 5.31767 23.5098 3.48492 23.5097C1.65242 23.5096 0.155996 22.0128 0.156086 20.1803C0.156176 18.3478 1.653 16.8511 3.4855 16.8512L6.81275 16.8514L6.81234 20.1807ZM8.48959 20.1807C8.48968 18.3482 9.9865 16.8516 11.819 16.8516C13.6515 16.8517 15.1482 18.3483 15.1481 20.1811L15.1477 28.5148C15.1476 30.3473 13.651 31.844 11.8183 31.8439C9.98576 31.8438 8.48909 30.347 8.48918 28.5145L8.48959 20.1807Z" fill="#DE1C59"/>
<path d="M11.8206 6.81491C9.98813 6.81482 8.49145 5.32024 8.49154 3.48749C8.49163 1.65499 9.98845 0.158564 11.821 0.158655C13.6535 0.158745 15.1501 1.65557 15.15 3.48807L15.1499 6.81532L11.8206 6.81491ZM11.8205 8.49216C13.653 8.49225 15.1497 9.98907 15.1496 11.8216C15.1495 13.6541 13.653 15.1507 11.8202 15.1507L3.48647 15.1502C1.65397 15.1502 0.157539 13.6536 0.15763 11.8208C0.15772 9.98833 1.65454 8.49166 3.48704 8.49175L11.8205 8.49216Z" fill="#35C5F0"/>
<path d="M25.1887 11.8217C25.1888 9.98923 26.6834 8.49255 28.5161 8.49264C30.3486 8.49273 31.8453 9.98956 31.8452 11.8221C31.8451 13.6546 30.3483 15.1512 28.5158 15.1511L25.1885 15.151L25.1887 11.8217ZM23.5114 11.8216C23.5114 13.6541 22.0145 15.1508 20.182 15.1507C18.3495 15.1506 16.8529 13.6541 16.8529 11.8213L16.8534 3.48757C16.8534 1.65507 18.35 0.158643 20.1828 0.158733C22.0153 0.158823 23.5119 1.65565 23.5119 3.48815L23.5114 11.8216Z" fill="#2EB57D"/>
<path d="M20.1824 25.187C22.0149 25.1871 23.5115 26.6817 23.5114 28.5144C23.5114 30.3469 22.0145 31.8436 20.182 31.8435C18.3495 31.8434 16.8529 30.3466 16.8529 28.5141L16.8531 25.1868L20.1824 25.187ZM20.1824 23.5097C18.3499 23.5096 16.8533 22.0128 16.8534 20.1803C16.8534 18.3478 18.35 16.8511 20.1828 16.8512L28.5165 16.8516C30.349 16.8517 31.8457 18.3483 31.8456 20.1811C31.8455 22.0136 30.3487 23.5102 28.5162 23.5101L20.1824 23.5097Z" fill="#EBB02E"/>
</g>
<defs>
<clipPath id="clip0_4689_15815">
<rect width="32" height="32" fill="white" transform="translate(0.00195312)"/>
</clipPath>
</defs>
</svg>
