<svg width="32" height="32" viewBox="0 0 32 32" fill="none" xmlns="http://www.w3.org/2000/svg">
<path d="M21.5308 13.75H28.7628C29.4468 13.75 30.0008 14.302 30.0008 14.984V21.56C30.0002 22.1567 29.8822 22.7475 29.6533 23.2986C29.4245 23.8497 29.0894 24.3503 28.667 24.7719C28.2447 25.1935 27.7435 25.5277 27.192 25.7556C26.6405 25.9835 26.0495 26.1005 25.4528 26.1H25.4328C24.836 26.1005 24.2451 25.9835 23.6935 25.7556C23.142 25.5277 22.6408 25.1935 22.2185 24.7719C21.7962 24.3503 21.461 23.8497 21.2322 23.2986C21.0033 22.7475 20.8853 22.1567 20.8848 21.56V14.398C20.8848 14.04 21.1748 13.75 21.5308 13.75ZM26.4208 12.45C28.0368 12.45 29.3488 11.14 29.3488 9.52598C29.3488 7.90998 28.0368 6.59998 26.4188 6.59998C24.8008 6.59998 23.4888 7.90998 23.4888 9.52598C23.4888 11.14 24.8008 12.45 26.4188 12.45H26.4208Z" fill="#5059C9"/>
<path d="M17.3023 12.45C17.8577 12.4508 18.4078 12.3421 18.9212 12.1303C19.4346 11.9184 19.9013 11.6075 20.2944 11.2152C20.6876 10.8229 20.9997 10.357 21.2128 9.84415C21.4259 9.33126 21.5358 8.7814 21.5363 8.22601C21.5361 7.67027 21.4263 7.12004 21.2132 6.60679C21.0001 6.09353 20.6879 5.62732 20.2944 5.23482C19.901 4.84232 19.4341 4.53124 18.9203 4.31935C18.4066 4.10747 17.8561 3.99896 17.3003 4.00001C16.7451 3.99948 16.1952 4.10832 15.682 4.32031C15.1689 4.53231 14.7025 4.8433 14.3095 5.23553C13.9165 5.62777 13.6047 6.09356 13.3917 6.60633C13.1787 7.11909 13.0689 7.66878 13.0683 8.22401C13.0683 10.558 14.9623 12.45 17.3003 12.45H17.3023ZM22.9463 13.75H11.0063C10.6826 13.7579 10.3752 13.8939 10.1516 14.1283C9.92814 14.3627 9.80682 14.6762 9.81434 15V22.5C9.77086 24.4439 10.5007 26.3256 11.8435 27.7319C13.1864 29.1381 15.0325 29.9539 16.9763 30C18.9205 29.9544 20.7671 29.1388 22.1104 27.7326C23.4537 26.3263 24.1838 24.4443 24.1403 22.5V15C24.1441 14.8395 24.1161 14.6799 24.0581 14.5302C24.0001 14.3805 23.9132 14.2437 23.8023 14.1276C23.6914 14.0115 23.5588 13.9185 23.4119 13.8537C23.265 13.7889 23.1068 13.7536 22.9463 13.75Z" fill="#7B83EB"/>
<path opacity="0.1" d="M17.6269 13.7499V24.2599C17.6253 24.5753 17.4991 24.8774 17.2759 25.1003C17.0526 25.3232 16.7503 25.4488 16.4349 25.4499H10.3849C10.0063 24.5117 9.81148 23.5095 9.81087 22.4979V14.9999C9.80716 14.8395 9.83511 14.6799 9.89313 14.5304C9.95116 14.3808 10.0381 14.2441 10.149 14.1282C10.2599 14.0123 10.3926 13.9194 10.5395 13.8548C10.6863 13.7902 10.8445 13.7553 11.0049 13.7519H17.6249L17.6269 13.7499Z" fill="black"/>
<path opacity="0.2" d="M16.9748 13.7502V24.9102C16.9722 25.2253 16.8457 25.5268 16.6226 25.7494C16.3996 25.9721 16.0979 26.0981 15.7828 26.1002H10.6928C10.4679 25.6876 10.2888 25.2517 10.1588 24.8002C9.93131 24.0547 9.81539 23.2796 9.81478 22.5002V14.9962C9.81106 14.8359 9.83895 14.6766 9.89685 14.5271C9.95474 14.3777 10.0415 14.2411 10.1522 14.1252C10.2629 14.0093 10.3954 13.9164 10.542 13.8517C10.6886 13.787 10.8466 13.7518 11.0068 13.7482H16.9768L16.9748 13.7502Z" fill="black"/>
<path opacity="0.2" d="M16.9748 13.7502V23.6102C16.9722 23.9253 16.8457 24.2268 16.6226 24.4494C16.3996 24.6721 16.0979 24.7981 15.7828 24.8002H10.1588C9.93131 24.0547 9.81539 23.2796 9.81478 22.5002V14.9962C9.81106 14.8359 9.83895 14.6766 9.89685 14.5271C9.95474 14.3777 10.0415 14.2411 10.1522 14.1252C10.2629 14.0093 10.3954 13.9164 10.542 13.8517C10.6886 13.787 10.8466 13.7518 11.0068 13.7482H16.9768L16.9748 13.7502Z" fill="black"/>
<path opacity="0.2" d="M16.3268 13.7502V23.6102C16.3242 23.9253 16.1977 24.2268 15.9746 24.4494C15.7516 24.6721 15.4499 24.7981 15.1348 24.8002H10.1588C9.93131 24.0547 9.81539 23.2796 9.81478 22.5002V14.9962C9.81106 14.8359 9.83895 14.6766 9.89685 14.5271C9.95474 14.3777 10.0415 14.2411 10.1522 14.1252C10.2629 14.0093 10.3954 13.9164 10.542 13.8517C10.6886 13.787 10.8466 13.7518 11.0068 13.7482L16.3268 13.7502Z" fill="black"/>
<path opacity="0.1" d="M17.6275 10.39V12.438C17.5175 12.444 17.4135 12.45 17.3015 12.45C17.1915 12.45 17.0875 12.444 16.9755 12.438C16.0823 12.3691 15.234 12.0185 14.5529 11.4365C13.8718 10.8546 13.393 10.0715 13.1855 9.19995H16.4355C16.7507 9.201 17.0526 9.32637 17.2759 9.54883C17.4991 9.77128 17.6254 10.0728 17.6275 10.388V10.39Z" fill="black"/>
<path opacity="0.2" d="M16.9765 11.0397V12.4377C16.1995 12.3782 15.4539 12.1053 14.8222 11.649C14.1905 11.1927 13.6971 10.5707 13.3965 9.85168H15.7865C16.1013 9.85326 16.4027 9.97886 16.6255 10.2013C16.8483 10.4237 16.9744 10.7249 16.9765 11.0397Z" fill="black"/>
<path opacity="0.2" d="M16.9765 11.0397V12.4377C16.1995 12.3782 15.4539 12.1053 14.8222 11.649C14.1905 11.1927 13.6971 10.5707 13.3965 9.85168H15.7865C16.1013 9.85326 16.4027 9.97886 16.6255 10.2013C16.8483 10.4237 16.9744 10.7249 16.9765 11.0397Z" fill="black"/>
<path opacity="0.2" d="M16.3265 11.0399V12.3339C15.6767 12.1804 15.0725 11.8754 14.5633 11.4436C14.054 11.0119 13.6542 10.4657 13.3965 9.84985H15.1365C15.4516 9.85143 15.7534 9.97731 15.9762 10.2001C16.199 10.423 16.3249 10.7247 16.3265 11.0399Z" fill="black"/>
<path d="M3.194 9.84998H15.132C15.792 9.84998 16.326 10.384 16.326 11.042V22.958C16.326 23.1147 16.2951 23.2698 16.2351 23.4146C16.175 23.5593 16.0871 23.6908 15.9762 23.8016C15.8653 23.9123 15.7336 24 15.5888 24.0598C15.4439 24.1196 15.2887 24.1502 15.132 24.15H3.192C3.03546 24.15 2.88046 24.1191 2.73584 24.0592C2.59122 23.9993 2.45982 23.9115 2.34913 23.8008C2.23844 23.6902 2.15064 23.5588 2.09074 23.4141C2.03083 23.2695 2 23.1145 2 22.958V11.042C2 10.382 2.534 9.84998 3.194 9.84998Z" fill="url(#paint0_linear_4689_15904)"/>
<path d="M12.3035 14.3859H9.91753V20.8719H8.39753V14.3859H6.01953V13.1259H12.3015L12.3035 14.3859Z" fill="white"/>
<defs>
<linearGradient id="paint0_linear_4689_15904" x1="4.488" y1="8.91998" x2="13.812" y2="25.096" gradientUnits="userSpaceOnUse">
<stop stop-color="#5A62C3"/>
<stop offset="0.5" stop-color="#4D55BD"/>
<stop offset="1" stop-color="#3940AB"/>
</linearGradient>
</defs>
</svg>
