<svg width="32" height="32" viewBox="0 0 32 32" fill="none" xmlns="http://www.w3.org/2000/svg">
<path d="M28.3927 3.8908C24.4552 5.52099 7.57166 12.5117 2.90677 14.417C-0.221716 15.6373 1.60949 16.7822 1.60949 16.7822C1.60949 16.7822 4.27977 17.6981 6.56895 18.3851C8.85782 19.0722 10.0787 18.3095 10.0787 18.3095L20.8381 11.0623C24.6535 8.46853 23.7377 10.6047 22.8217 11.5204C20.8378 13.5042 17.5564 16.6317 14.8092 19.1495C13.5882 20.2174 14.1983 21.133 14.7327 21.591C16.7161 23.27 22.1333 26.7044 22.4382 26.9332C24.0499 28.0745 27.2202 29.7175 27.7029 26.2472L29.6121 14.2682C30.2232 10.2245 30.8339 6.48569 30.9102 5.41754C31.1397 2.82301 28.3927 3.8908 28.3927 3.8908Z" fill="#1B92D1"/>
</svg>
